<svg xmlns="http://www.w3.org/2000/svg" version="1.1" viewBox="0 0 1000 1000">
	<circle cx="500" cy="400" r="300" fill="white" stroke="black"/>

	<path d="M500 400 L500 100 A300 300 0 0 0 240.192389 250" fill="blue" stroke="blue" transform="rotate(30 500 400)"/>
	<path d="M500 400 L500 100 A300 300 0 0 0 240.192389 250" fill="white" stroke="white" transform="rotate(90 500 400)"/>
	<path d="M500 400 L500 100 A300 300 0 0 0 240.192389 250" fill="orange" stroke="orange" transform="rotate(150 500 400)"/>
	<path d="M500 400 L500 100 A300 300 0 0 0 240.192389 250" fill="green" stroke="green" transform="rotate(210 500 400)"/>
	<path d="M500 400 L500 100 A300 300 0 0 0 240.192389 250" fill="yellow" stroke="yellow" transform="rotate(270 500 400)"/>
	<path d="M500 400 L500 100 A300 300 0 0 0 240.192389 250" fill="red" stroke="red" transform="rotate(330 500 400)"/>

	<circle cx="500" cy="400" r="200" fill="white" stroke="black"/>

	<!--这两个 x 和 y 不是计算得出的，是用 (485, 170) * rotate(-60, 500, 400) 得出结果后用 Inkscape 转一下得到的。-->
	<text x="272.606" y="293.907" font-family="Ubuntu Mono" font-size="60">R</text>
	<text x="697.394" y="293.907" font-family="Ubuntu Mono" font-size="60">C</text>
	<text x="485" y="670" font-family="Ubuntu Mono" font-size="60">A</text>

	<polygon points="500,276.393 500,400 392.696,462.235 392.696,338.629" fill="red" stroke="black"/>
	<polygon points="500,276.393 500,400 392.696,462.235 392.696,338.629" fill="yellow" stroke="black" transform="rotate(120 500 400)"/>
	<polygon points="500,276.393 500,400 392.696,462.235 392.696,338.629" fill="blue" stroke="black" transform="rotate(240 500 400)"/>

	<text x="" y="" font-family="Ubuntu Mono" font-size="60">J</text>
	<text x="" y="" font-family="Ubuntu Mono" font-size="60">N</text>
	<text x="485" y="485" font-family="Ubuntu Mono" font-size="60">U</text>

	<text x="485" y="70" font-family="Ubuntu Mono" font-size="60" transform="rotate(-117.073171 500 400)">J</text>
	<text x="485" y="70" font-family="Ubuntu Mono" font-size="60" transform="rotate(-111.219512 500 400)">I</text>
	<text x="485" y="70" font-family="Ubuntu Mono" font-size="60" transform="rotate(-105.365854 500 400)">N</text>
	<text x="485" y="70" font-family="Ubuntu Mono" font-size="60" transform="rotate(-99.512195 500 400)">A</text>
	<text x="485" y="70" font-family="Ubuntu Mono" font-size="60" transform="rotate(-93.658537 500 400)">N</text>
	<text x="485" y="70" font-family="Ubuntu Mono" font-size="60" transform="rotate(-87.804878 500 400)"> </text>
	<text x="485" y="70" font-family="Ubuntu Mono" font-size="60" transform="rotate(-81.951220 500 400)">U</text>
	<text x="485" y="70" font-family="Ubuntu Mono" font-size="60" transform="rotate(-76.097561 500 400)">N</text>
	<text x="485" y="70" font-family="Ubuntu Mono" font-size="60" transform="rotate(-70.243902 500 400)">I</text>
	<text x="485" y="70" font-family="Ubuntu Mono" font-size="60" transform="rotate(-64.390244 500 400)">V</text>
	<text x="485" y="70" font-family="Ubuntu Mono" font-size="60" transform="rotate(-58.536585 500 400)">E</text>
	<text x="485" y="70" font-family="Ubuntu Mono" font-size="60" transform="rotate(-52.682927 500 400)">R</text>
	<text x="485" y="70" font-family="Ubuntu Mono" font-size="60" transform="rotate(-46.829268 500 400)">S</text>
	<text x="485" y="70" font-family="Ubuntu Mono" font-size="60" transform="rotate(-40.975610 500 400)">I</text>
	<text x="485" y="70" font-family="Ubuntu Mono" font-size="60" transform="rotate(-35.121951 500 400)">T</text>
	<text x="485" y="70" font-family="Ubuntu Mono" font-size="60" transform="rotate(-29.268293 500 400)">Y</text>
	<text x="485" y="70" font-family="Ubuntu Mono" font-size="60" transform="rotate(-23.414634 500 400)"> </text>
	<text x="485" y="70" font-family="Ubuntu Mono" font-size="60" transform="rotate(-17.560976 500 400)">R</text>
	<text x="485" y="70" font-family="Ubuntu Mono" font-size="60" transform="rotate(-11.707317 500 400)">U</text>
	<text x="485" y="70" font-family="Ubuntu Mono" font-size="60" transform="rotate(-5.853659 500 400)">B</text>
	<text x="485" y="70" font-family="Ubuntu Mono" font-size="60" transform="rotate(0 500 400)">I</text><!--Here center does-->
	<text x="485" y="70" font-family="Ubuntu Mono" font-size="60" transform="rotate(5.853659 500 400)">K</text>
	<text x="485" y="70" font-family="Ubuntu Mono" font-size="60" transform="rotate(11.707317 500 400)">S</text>
	<text x="485" y="70" font-family="Ubuntu Mono" font-size="60" transform="rotate(17.560976 500 400)">'</text>
	<text x="485" y="70" font-family="Ubuntu Mono" font-size="60" transform="rotate(23.414634 500 400)"> </text>
	<text x="485" y="70" font-family="Ubuntu Mono" font-size="60" transform="rotate(29.268293 500 400)">C</text>
	<text x="485" y="70" font-family="Ubuntu Mono" font-size="60" transform="rotate(35.121951 500 400)">U</text>
	<text x="485" y="70" font-family="Ubuntu Mono" font-size="60" transform="rotate(40.975610 500 400)">B</text>
	<text x="485" y="70" font-family="Ubuntu Mono" font-size="60" transform="rotate(46.829268 500 400)">E</text>
	<text x="485" y="70" font-family="Ubuntu Mono" font-size="60" transform="rotate(52.682927 500 400)"> </text>
	<text x="485" y="70" font-family="Ubuntu Mono" font-size="60" transform="rotate(58.536585 500 400)">A</text>
	<text x="485" y="70" font-family="Ubuntu Mono" font-size="60" transform="rotate(64.390244 500 400)">S</text>
	<text x="485" y="70" font-family="Ubuntu Mono" font-size="60" transform="rotate(70.243902 500 400)">S</text>
	<text x="485" y="70" font-family="Ubuntu Mono" font-size="60" transform="rotate(76.097561 500 400)">O</text>
	<text x="485" y="70" font-family="Ubuntu Mono" font-size="60" transform="rotate(81.951220 500 400)">C</text>
	<text x="485" y="70" font-family="Ubuntu Mono" font-size="60" transform="rotate(87.804878 500 400)">I</text>
	<text x="485" y="70" font-family="Ubuntu Mono" font-size="60" transform="rotate(93.658537 500 400)">A</text>
	<text x="485" y="70" font-family="Ubuntu Mono" font-size="60" transform="rotate(99.512195 500 400)">T</text>
	<text x="485" y="70" font-family="Ubuntu Mono" font-size="60" transform="rotate(105.365854 500 400)">I</text>
	<text x="485" y="70" font-family="Ubuntu Mono" font-size="60" transform="rotate(111.219512 500 400)">O</text>
	<text x="485" y="70" font-family="Ubuntu Mono" font-size="60" transform="rotate(117.073171 500 400)">N</text>

	<text x="180" y="850" font-family="Simsun" font-size="80">暨南大学魔方协会</text>
</svg>
